<mxfile host="app.diagrams.net" modified="2023-09-22T05:48:43.542Z" agent="Mozilla/5.0 (Windows NT 10.0; Win64; x64) AppleWebKit/537.36 (KHTML, like Gecko) Chrome/116.0.0.0 Safari/537.36" version="21.8.0" etag="F4x60rcZ7Vw6Gs3KJ5Yk" type="github">
  <diagram name="第 1 页" id="2ZseZwnbdRSQ71YtdZbO">
    <mxGraphModel>
      <root>
        <mxCell id="0" />
        <mxCell id="1" parent="0" />
      </root>
    </mxGraphModel>
  </diagram>
</mxfile>
